<svg xmlns="http://www.w3.org/2000/svg" viewBox="0 0 1440 320"><path fill="#273036" fill-opacity="1" d="M0,64L26.7,58.7C53.3,53,107,43,160,64C213.3,85,267,139,320,160C373.3,181,427,171,480,144C533.3,117,587,75,640,74.7C693.3,75,747,117,800,122.7C853.3,128,907,96,960,106.7C1013.3,117,1067,171,1120,202.7C1173.3,235,1227,245,1280,213.3C1333.3,181,1387,107,1413,69.3L1440,32L1440,0L1413.3,0C1386.7,0,1333,0,1280,0C1226.7,0,1173,0,1120,0C1066.7,0,1013,0,960,0C906.7,0,853,0,800,0C746.7,0,693,0,640,0C586.7,0,533,0,480,0C426.7,0,373,0,320,0C266.7,0,213,0,160,0C106.7,0,53,0,27,0L0,0Z"></path></svg>